<?xml version="1.0" encoding="UTF-8" standalone="no"?>
<svg width="199px" height="200px" viewBox="0 0 199 200" version="1.1" xmlns="http://www.w3.org/2000/svg" xmlns:xlink="http://www.w3.org/1999/xlink" xmlns:sketch="http://www.bohemiancoding.com/sketch/ns">
    <title>sign</title>
    <description>Created with Sketch (http://www.bohemiancoding.com/sketch)</description>
    <defs></defs>
    <g id="Page-1" stroke="none" stroke-width="1" fill="none" fill-rule="evenodd" sketch:type="MSPage">
        <path d="M110,10 L90,10 L90,86.5674965 L89.395184,85.9626804 L26.4626804,148.895184 L40.604816,163.03732 L90,113.642136 L90,190 L110,190 L110,113.642136 L159.395184,163.03732 L173.53732,148.895184 L110.604816,85.9626804 L110,86.5674965 L110,10 Z" id="Rectangle-1" fill="#7ED321" sketch:type="MSShapeGroup"></path>
        <path d="M99.5,0 C44.5351555,0 0,44.7839552 0,100 C0,155.216045 44.5351555,200 99.5,200 C154.464845,200 199,155.216045 199,100 C199,44.7839552 154.464845,0 99.5,0 Z M99.5,20 C143.394131,20 179,55.8047849 179,100 C179,144.195215 143.394131,180 99.5,180 C55.6058694,180 20,144.195215 20,100 C20,55.8047849 55.6058694,20 99.5,20 Z" id="Oval-1" fill="#7ED321" sketch:type="MSShapeGroup"></path>
    </g>
</svg>