<svg width="622px" height="585px" viewBox="0 0 622 585" version="1.1" xmlns="http://www.w3.org/2000/svg" xmlns:xlink="http://www.w3.org/1999/xlink" xmlns:sketch="http://www.bohemiancoding.com/sketch/ns">
    <title>Cat</title>
    <style>
        #tail,
        #body,
        #forepaws,
        #head, 
        #hair {
            stroke-opacity: 0;
            transition: all 1s;
            }

            
        @media (min-width: 400px) {
            #hair {
                stroke-opacity: 1;
                }    
            }
        @media (min-width: 600px) {
            #head {
                stroke-opacity: 1;
                }    
            }
        @media (min-width: 800px) {
            #forepaws {
                stroke-opacity: 1;
                }    
            }        
        @media (min-width: 900px) {
            #body {
                stroke-opacity: 1;
                }
        }
        @media (min-width: 920px) {
            #tail {
                stroke-opacity: 1;
                }
        }    

    </style>
    <g id="Page-1" stroke="none" stroke-width="1" fill="none" fill-rule="evenodd" stroke-linecap="round">
        <g id="cat" sketch:type="MSLayerGroup">
            <g id="tail" transform="translate(413.000000, 151.000000)" stroke="#000000" stroke-width="8" fill="#FFFFFF" sketch:type="MSShapeGroup">
                <path d="M112.808594,4.578125 C113.390075,6.17607087 113.983746,7.72155257 114.587999,9.21981667 C125.48758,36.2456746 169.600703,66.8816547 197,182.035156 C209.039063,232.632813 206,261.910156 186,315 C166,368.089844 150.984375,375 115.546875,399 C80.109375,423 49.6835938,427.839844 49.6835938,427.839844 L78,385.398438 L38,415 L58,375 L18,409.964844 L38,364.953125 L4.44921875,395 C4.44921875,395 4.6171875,365.769531 11.3085938,335 C18,304.230469 28.6289062,285.464844 49.8085938,255 C70.9882812,224.535156 108.585938,208.070312 108.585938,182.035156 C108.585938,156 107.796875,35 107.796875,35" id="Path-9"></path>
            </g>
            <g id="body" transform="translate(52.000000, 62.000000)" stroke="#000000" stroke-width="8" fill="#FFFFFF" stroke-linecap="round" sketch:type="MSShapeGroup">
                <path d="M97.5566934,305 C97.5566934,305 11.6847624,221.601562 28.0466445,152.800781 C44.4085267,84 158.124968,34.8007812 223.618496,14.8007812 C289.112024,-5.19921875 362.029203,14.8007817 362.02919,14.8007812 C362.029178,14.8007808 375.135568,4 406.778011,4 C460.192815,4 473.019297,49.0234351 479.825552,129.898438 C486.631806,210.77344 475.991047,263.906263 468.091931,274.453125 C460.192815,284.999987 97.5566934,305 97.5566934,305 Z" id="Path-3"></path>
                <path d="M398.164063,95.8124995 C361.050782,86.8789058 327.999999,130.339842 348,183 C368.000001,235.660157 411.863281,264 421.78906,264 C431.714838,263.999999 376.343751,269.117187 367,284.6875 C359.678971,296.887173 362.560496,307.449219 371.113281,314 C376.208987,317.902922 404.774373,310.21103 427.03438,303.593086 C442.136238,299.103275 454.335935,295.107767 454.335938,295.5625 C454.335943,296.687506 476.999998,288.562506 477,237" id="Path-27"></path>
            </g>
            <g id="forepaws" transform="translate(56.000000, 238.000000)" stroke="#000000" stroke-width="8" sketch:type="MSShapeGroup">
                <g id="right-leg" transform="translate(0.000000, 37.000000)">
                    <path d="M28,0 C22.1185372,11.8552473 17,38.7216526 17,52" id="Path-7"></path>
                    <path d="M54.8085938,72 C46,60.5898437 38.578125,52 26,52 C13.421875,52 0.30859375,61.6015625 0.30859375,72 C0.30859375,82.3984375 0.1484375,92 13.0742188,92 C26,92 63.6171875,83.4101562 54.8085938,72 Z" id="Path-8" fill="#FFFFFF"></path>
                </g>
                <path d="M295,-0.18359375 C303.171875,9 335.000007,94.0507812 335.000007,114.050781 C335.000007,134.050781 302.925781,142.800781 275,142.800781 C247.074219,142.800781 162.09375,134.078125 134,135.078125 C105.90625,136.078125 68.4903981,148.12248 54.0000009,149 C39.5096038,149.87752 13.1523438,156.601562 6.4765625,142.800781 C-0.199218844,129 10.4765617,113 37.9999993,114 C65.5234369,115 58.1633278,100.808076 120.398438,95.46875 C182.633549,90.1294241 233.999994,82.9257812 255.000001,82.9257812" id="Path-6" stroke-linecap="round" fill="#FFFFFF"></path>
            </g>
            <g id="head" transform="translate(46.000000, 0.000000)" stroke="#000000" stroke-linecap="round" sketch:type="MSShapeGroup">
                <path d="M17.0341686,5.93560124 C30.0683371,-3.63660983 83.261959,50.4927645 83.261959,50.4927645 C83.261959,50.4927645 106.100038,46 129.425781,46 C152.751524,46 173.749431,52.4927645 173.749431,52.4927645 C173.749431,52.4927645 223.567198,-0.943401785 237.257403,5.93560122 C250.947608,12.8146042 229.617312,99.0499279 229.617312,99.0499279 C229.617312,99.0499279 239.949219,120.584775 247.115234,150.589841 C254.28125,180.594907 213.931663,205.108419 213.931663,205.108419 C213.931663,205.108419 161.735122,232.634044 158.734375,240.974606 C155.733628,249.315168 137.98633,262 120.628702,262 C103.271073,262 94.4965849,246.923481 84.2369021,238.721418 C73.9772192,230.519355 35.8405467,204.312765 27.3257403,198.23851 C18.8109339,192.164255 4.00000064,174.377963 4,156.04608 C3.99999936,137.714197 27.3257403,89.0201307 27.3257403,89.0201307 C27.3257403,89.0201307 4,15.5078123 17.0341686,5.93560124 Z" id="Path-4" stroke-width="8" fill="#FFFFFF"></path>
                <g id="ears-lines" transform="translate(19.000000, 4.000000)" stroke-width="4">
                    <path d="M53,55 C53,55 7.63513407,4 1.18451726e-16,4" id="Path-25"></path>
                    <path d="M220,55 C220,55 188.127615,15.8936119 167,4" id="Path-26" transform="translate(193.500000, 29.500000) scale(-1, 1) rotate(9.000000) translate(-193.500000, -29.500000) "></path>
                </g>
            </g>
            <g id="hair" transform="translate(0.000000, 75.000000)" sketch:type="MSShapeGroup">
                <g id="usi" transform="translate(1.000000, 124.000000)" stroke="#000000" stroke-width="3">
                    <path d="M238.710843,4 C238.710843,4 324.769674,6.22025401 347,11" id="Path-12"></path>
                    <path d="M221,14 C233.82265,14 317.200586,21.8740157 337,26" id="Path-13"></path>
                    <path d="M202,25 C211.053517,25 306.960027,32.4754988 339,41" id="Path-14"></path>
                    <path d="M196,34 C196,34 311.261525,44.9362305 326.705882,57" id="Path-15"></path>
                    <path d="M115,4 C115,4 36.6819387,10.3409265 1,31" id="Path-16" transform="translate(58.000000, 17.500000) rotate(4.000000) translate(-58.000000, -17.500000) "></path>
                    <path d="M117,16 C117,16 36.1708905,26.6381186 1,46" id="Path-17"></path>
                    <path d="M129,23 C129,23 27.9315453,47.6942619 6,61" id="Path-18"></path>
                </g>
                <g id="brovi" transform="translate(96.000000, 1.000000)" stroke="#000000" stroke-width="3">
                    <path d="M19,46 C19,46 11.7115483,8.65195313 6,0" id="Path-19"></path>
                    <path d="M28.8306164,46 C28.8306164,46 30.5549856,16.0865234 23,0" id="Path-20"></path>
                    <path d="M14,46 C14,46 5.26964974,27.4584961 0,23" id="Path-21"></path>
                    <path d="M116,51 C116,51 123.169533,6.8066421 129,0" id="Path-22"></path>
                    <path d="M125,49 C125,49 134.977152,10.4239996 141,2" id="Path-23" transform="translate(133.000000, 26.000000) rotate(6.000000) translate(-133.000000, -26.000000) "></path>
                    <path d="M135,46 C135,46 145.055017,29.3429688 152,23" id="Path-24"></path>
                </g>
                <g id="dots-right" transform="translate(124.000000, 137.000000)" fill="#000000">
                    <circle id="Oval-7" cx="1.5" cy="1.5" r="1.5"></circle>
                    <circle id="Oval-8" cx="11.5" cy="8.5" r="1.5"></circle>
                    <circle id="Oval-9" cx="13.5" cy="19.5" r="1.5"></circle>
                </g>
                <g id="dots-left" transform="translate(191.000000, 126.000000)" fill="#000000">
                    <circle id="Oval-12" transform="translate(25.500000, 11.500000) scale(-1, 1) translate(-25.500000, -11.500000) " cx="25.5" cy="11.5" r="1.5"></circle>
                    <circle id="Oval-13" transform="translate(44.500000, 1.500000) scale(-1, 1) translate(-44.500000, -1.500000) " cx="44.5" cy="1.5" r="1.5"></circle>
                    <circle id="Oval-11" transform="translate(8.500000, 17.500000) scale(-1, 1) translate(-8.500000, -17.500000) " cx="8.5" cy="17.5" r="1.5"></circle>
                    <circle id="Oval-10" transform="translate(1.500000, 31.500000) scale(-1, 1) translate(-1.500000, -31.500000) " cx="1.5" cy="31.5" r="1.5"></circle>
                </g>
            </g>
            <g id="face" transform="translate(85.000000, 131.000000)" sketch:type="MSShapeGroup">
                <g id="eyes">
                    <g id="eye">
                        <ellipse id="Oval-1" stroke="#000000" stroke-width="6" fill="#030000" transform="translate(32.500000, 29.500000) rotate(25.000000) translate(-32.500000, -29.500000) " cx="32.5" cy="29.5" rx="26.5" ry="20.5"></ellipse>
                        <circle id="Oval-2" fill="#9BD321" cx="32.5" cy="29.5" r="20.5"></circle>
                        <path d="M39,30 C39,18.954305 35.8659932,10 32,10 C28.1340068,10 25,18.954305 25,30 C25,41.045695 28.1340068,50 32,50 C35.8659932,50 39,41.045695 39,30 Z" id="Oval-3" fill="#000000"></path>
                    </g>
                    <g id="eye-2" transform="translate(126.500000, 29.500000) scale(-1, 1) translate(-126.500000, -29.500000) translate(94.000000, 0.000000)">
                        <ellipse id="Oval-1" stroke="#000000" stroke-width="6" fill="#030000" transform="translate(32.500000, 29.500000) rotate(25.000000) translate(-32.500000, -29.500000) " cx="32.5" cy="29.5" rx="26.5" ry="20.5"></ellipse>
                        <circle id="Oval-2" fill="#9BD321" cx="32.5" cy="29.5" r="20.5"></circle>
                        <path d="M39,30 C39,18.954305 35.8659932,10 32,10 C28.1340068,10 25,18.954305 25,30 C25,41.045695 28.1340068,50 32,50 C35.8659932,50 39,41.045695 39,30 Z" id="Oval-3" fill="#000000"></path>
                    </g>
                    <circle id="Oval-4" fill-opacity="0.453436368" fill="#FFFFFF" cx="36" cy="18" r="6"></circle>
                    <circle id="Oval-5" fill-opacity="0.453436368" fill="#FFFFFF" cx="132" cy="18" r="6"></circle>
                </g>
                <g id="nose" transform="translate(49.000000, 63.000000)">
                    <path d="M32.1727686,25 C27.5913083,19.0170901 13.9029669,17.0449851 16.2766788,7.31839101 C18.6503906,-2.40820311 43.0375981,-1.40136721 45.2697377,6.82487384 C47.5018773,15.0511149 35.5341799,18.1435549 32.1727686,25 Z" id="Path-10" fill="#0B0B0B"></path>
                    <path d="M0,49.5665442 C7.28542323,49.5665442 23.7932534,52.1803957 27.6025391,44.5706444 C31.4118247,36.9608931 31.9619374,29 31.9619374,29 C31.9619374,29 33.8280453,38.1710736 39.0446379,44.5706442 C44.2612305,50.9702148 71,48.4759677 71,48.4759677" id="Path-11" stroke="#000000" stroke-width="5" stroke-linecap="round" stroke-linejoin="round"></path>
                </g>
            </g>
        </g>
    </g>
</svg>