<svg viewBox="0 0 610 583" version="1.1" xmlns="http://www.w3.org/2000/svg" xmlns:xlink="http://www.w3.org/1999/xlink" xmlns:sketch="http://www.bohemiancoding.com/sketch/ns">
    <title>cat</title>
    <style>
        #tail,
        #body,
        #forepaws,
        #head {
            stroke-opacity: 0;
            transition: all .7s;
            }
        #hair,
        #dots, 
        #face {
          stroke-opacity: 0;
          fill-opacity: 0;
          transition: all .7s;
          }
        #mouth {
            stroke-opacity: 0;
            transition: all 2s;
            }

        @media (min-width: 400px) {
            #mouth {
                stroke-opacity: 1;
                }  
            }

        @media (min-width: 500px) {
            #face {
                stroke-opacity: 1;
                fill-opacity: 1;
                }  
          }

        @media (min-width: 600px) {
            #hair {
                stroke-opacity: 1;
                fill-opacity: 1;
                }  
            #dots {
              fill-opacity: 1;
              }
            }
        @media (min-width: 700px) {
            #head {
                stroke-opacity: 1;
                }    
            }
        @media (min-width: 900px) {
            #forepaws {
                stroke-opacity: 1;
                }    
            }        
        @media (min-width: 950px) {
            #body {
                stroke-opacity: 1;
                }
        }
        @media (min-width: 970px) {
            #tail {
                stroke-opacity: 1;
                }
        }  
    </style>
    <g id="cat-1-Copy" stroke="none" stroke-width="1" fill="none" fill-rule="evenodd">
        <g id="cat" transform="translate(-12.000, 0.000)">
            <g id="tail" transform="translate(413.000, 151.000)" stroke="#000" stroke-width="8" fill="#FFFFFF" stroke-linecap="round" stroke-linejoin="round">
                <path d="M112.808594,4.578125 C113.390075,6.17607087 113.983746,7.72155257 114.587999,9.21981667 C125.48758,36.2456746 169.600703,66.8816547 197,182.035156 C209.039063,232.632813 206,261.910156 186,315 C166,368.089844 150.984375,375 115.546875,399 C80.109375,423 49.6835938,427.839844 49.6835938,427.839844 L78,385.398438 L38,415 L58,375 L18,409.964844 L38,364.953125 L4.44921875,395 C4.44921875,395 4.6171875,365.769531 11.3085938,335 C18,304.230469 28.6289062,285.464844 49.8085938,255 C70.9882812,224.535156 108.585938,208.070312 108.585938,182.035156 C108.585938,156 107.796875,35 107.796875,35" id="Path-9"></path>
            </g>
            <g id="body" transform="translate(52.000, 62.000)" stroke="#000" stroke-width="8" fill="#FFFFFF" stroke-linecap="round">
                <path d="M97.5566934,305 C97.5566934,305 11.6847624,221.601562 28.0466445,152.800781 C44.4085267,84 158.124968,34.8007812 223.618496,14.8007812 C289.112024,-5.19921875 362.029203,14.8007817 362.02919,14.8007812 C362.029178,14.8007808 375.135568,4 406.778011,4 C460.192815,4 473.019297,49.0234351 479.825552,129.898438 C486.631806,210.77344 475.991047,263.906263 468.091931,274.453125 C460.192815,284.999987 97.5566934,305 97.5566934,305 Z" id="Path-3"></path>
                <path d="M398.164063,95.8124995 C361.050782,86.8789058 327.999999,130.339842 348,183 C368.000001,235.660157 411.863281,264 421.78906,264 C431.714838,263.999999 376.343751,269.117187 367,284.6875 C359.678971,296.887173 362.560496,307.449219 371.113281,314 C376.208987,317.902922 404.774373,310.21103 427.03438,303.593086 C442.136238,299.103275 454.335935,295.107767 454.335938,295.5625 C454.335943,296.687506 476.999998,288.562506 477,237" id="Path-27"></path>
            </g>
            <g id="forepaws" transform="translate(56.000, 238.000)" stroke="#000" stroke-width="8">
                <g id="right-leg" transform="translate(0.000, 37.000)">
                    <path d="M28,0 C22.1185372,11.8552473 17,38.7216526 17,52" id="Path-7"></path>
                    <path d="M54.8085938,72 C46,60.5898437 38.578125,52 26,52 C13.421875,52 0.30859375,61.6015625 0.30859375,72 C0.30859375,82.3984375 0.1484375,92 13.0742188,92 C26,92 63.6171875,83.4101562 54.8085938,72 Z" id="Path-8" fill="#FFFFFF"></path>
                </g>
                <path d="M295,-0.18359375 C303.171875,9 335.000007,94.0507812 335.000007,114.050781 C335.000007,134.050781 302.925781,142.800781 275,142.800781 C247.074219,142.800781 162.09375,134.078125 134,135.078125 C105.90625,136.078125 68.4903981,148.12248 54.0009,149 C39.5096038,149.87752 13.1523438,156.601562 6.4765625,142.800781 C-0.199218844,129 10.4765617,113 37.9999993,114 C65.5234369,115 58.1633278,100.808076 120.398438,95.46875 C182.633549,90.1294241 233.999994,82.9257812 255.000001,82.9257812" id="Path-6" stroke-linecap="round" fill="#FFFFFF"></path>
            </g>
            <g id="head" transform="translate(45.000, 0.000)" stroke="#000" stroke-linecap="round">
                <path d="M18.0341686,5.93560124 C31.0683371,-3.63660983 84.261959,50.4927645 84.261959,50.4927645 C84.261959,50.4927645 107.100038,46 130.425781,46 C153.751524,46 174.749431,52.4927645 174.749431,52.4927645 C174.749431,52.4927645 224.567198,-0.943401785 238.257403,5.93560122 C251.947608,12.8146042 230.617312,99.0499279 230.617312,99.0499279 C230.617312,99.0499279 240.949219,120.584775 248.115234,150.589841 C255.28125,180.594907 259.550794,207.929684 221.355467,228.218747 C204.968748,246.359372 174.285153,266.289075 121.746091,266.289075 C69.2070285,266.289075 42.5859389,232.886716 42.5859389,232.886716 C42.5859389,232.886716 -18.4638548,212.4082 6.05468771,150.589841 C30.5732303,88.7714813 28.3257403,89.0201307 28.3257403,89.0201307 C28.3257403,89.0201307 5,15.5078123 18.0341686,5.93560124 Z" id="Path-4" stroke-width="8" fill="#FFFFFF"></path>
                <g id="ears-lines" transform="translate(20.000, 4.000)" stroke-width="4">
                    <path d="M53,55 C53,55 7.63513407,4 1.18451726e-16,4" id="Path-25"></path>
                    <path d="M220,55 C220,55 188.127615,15.8936119 167,4" id="Path-26" transform="translate(193.500000, 29.500000) scale(-1, 1) rotate(9.000) translate(-193.500000, -29.500000) "></path>
                </g>
            </g>
            <g id="hair" transform="translate(0.000, 75.000)">
                <g id="hair-left" transform="translate(89.195774, 104.763932) rotate(18.000) translate(-89.195774, -104.763932) translate(16.195774, 72.763932)">
                    <g id="Oval-7-+-Path-17" transform="translate(67.845666, 22.799564) rotate(3.000) translate(-67.845666, -22.799564) translate(1.345666, 12.799564)">
                        <circle id="Oval-7" fill="#000" cx="131.5" cy="1.5" r="1.5"></circle>
                        <path d="M124,3 C124,3 51.5681095,27.7600994 -0.0316982269,18" id="Path-17" stroke="#000" stroke-width="3"></path>
                    </g>
                    <g id="Oval-8-+-Path-18" transform="translate(72.508908, 40.159816) rotate(3.000) translate(-72.508908, -40.159816) translate(1.008908, 19.659816)">
                        <circle id="Oval-8" fill="#000" cx="141.5" cy="1.5" r="1.5"></circle>
                        <path d="M136,3 C136,3 49.0825937,33.9927902 0.434030291,40.5963257" id="Path-18" stroke="#000" stroke-width="3"></path>
                    </g>
                </g>
                <g id="hair-right" transform="translate(261.021748, 94.532777) rotate(-14.000) translate(-261.021748, -94.532777) translate(176.021748, 70.032777)">
                    <g id="Path-+-Oval-10" transform="translate(0.000, 30.000)">
                        <path d="M6,2 C6,2 135.817993,24.4758348 169.535706,17.8098822" id="Path" stroke="#000" stroke-width="3"></path>
                        <circle id="Oval-10" fill="#000" transform="translate(1.500000, 1.500000) scale(-1, 1) translate(-1.500000, -1.500000) " cx="1.5" cy="1.5" r="1.5"></circle>
                    </g>
                    <g id="Path-+-Path" transform="translate(11.000, 16.000)">
                        <circle id="Path" fill="#000" cx="1.5" cy="1.5" r="1.5"></circle>
                        <path d="M5,5 C14.2461448,5 76.8097807,22.4834001 148.619561,12.0313042" id="Path" stroke="#000" stroke-width="3"></path>
                    </g>
                </g>
            </g>
            <g id="face" transform="translate(71.000, 80.000)">
                <g id="eyes" transform="translate(0.000, 17.000)">
                    <g id="eye" transform="translate(0.000, 2.000)">
                        <ellipse id="Oval-1" stroke="#000" stroke-width="6" fill="#030000" transform="translate(44.000, 41.000) rotate(25.000) translate(-44.000, -41.000) " cx="44" cy="41" rx="36" ry="28"></ellipse>
                        <circle id="Oval-2" fill="#9BD321" cx="44" cy="41" r="28"></circle>
                        <path d="M53,42 C53,27.0883118 48.7467051,15 43.5,15 C38.2532949,15 34,27.0883118 34,42 C34,56.9116882 38.2532949,69 43.5,69 C48.7467051,69 53,56.9116882 53,42 Z" id="Oval-3" fill="#000"></path>
                    </g>
                    <g id="eye-2" transform="translate(152.000, 41.000) scale(-1, 1) translate(-152.000, -41.000) translate(108.000, 0.000)">
                        <ellipse id="Oval-1" stroke="#000" stroke-width="6" fill="#030000" transform="translate(44.000, 41.000) rotate(25.000) translate(-44.000, -41.000) " cx="44" cy="41" rx="36" ry="28"></ellipse>
                        <circle id="Oval-2" fill="#9BD321" cx="44" cy="41" r="28"></circle>
                        <path d="M53,42 C53,27.0883118 48.7467051,15 43.5,15 C38.2532949,15 34,27.0883118 34,42 C34,56.9116882 38.2532949,69 43.5,69 C48.7467051,69 53,56.9116882 53,42 Z" id="Oval-3" fill="#000"></path>
                    </g>
                    <circle id="Oval-4" fill-opacity="0.453436368" fill="#FFFFFF" cx="50" cy="32" r="6"></circle>
                    <circle id="Oval-5" fill-opacity="0.453436368" fill="#FFFFFF" cx="146" cy="32" r="6"></circle>
                </g>
                <g id="nose" transform="translate(84.000, 83.000)" fill="#0B0B0B">
                    <path d="M16.1727686,25 C11.5913083,19.0170901 -2.09703311,17.0449851 0.276678755,7.31839101 C2.65039062,-2.40820311 27.0375981,-1.40136721 29.2697377,6.82487384 C31.5018773,15.0511149 19.5341799,18.1435549 16.1727686,25 Z" id="Path-10"></path>
                </g>
                <g id="eyebrows" transform="translate(18.000, 0.000)" stroke="#000" stroke-width="5">
                    <path d="M0.06640625,11.609375 C5.49609375,6.87109375 21.796875,4.6484375 35.0078125,12.8164062" id="Path-36" transform="translate(17.500000, 10.000) rotate(341.000) translate(-17.500000, -10.000) "></path>
                    <path d="M125.066406,7.609375 C130.496094,2.87109375 146.796875,0.6484375 160.007812,8.81640625" id="Path-37" transform="translate(142.500000, 6.000) scale(-1, 1) rotate(-11.000) translate(-142.500000, -6.000) "></path>
                </g>
            </g>
            <g id="mouth" transform="translate(75.000, 197.000)" stroke="#000">
                <path d="M4.4408921e-16,1.89924485 C79.8457031,93.6796875 157.372455,46.9928307 200,0 C124.49418,11.743801 92.353601,16.1663879 4.4408921e-16,1.89924485 Z" id="Path-27" stroke-width="7"></path>
                <path d="M26.8808594,7.43554687 L26.8398438,26.1640625" id="Path-28" stroke-width="5"></path>
                <path d="M42.8808594,7.49512702 L42.8398438,36.7431459" id="Path-29" stroke-width="5"></path>
                <path d="M64.8808594,12.495127 L64.8808594,47.4999984" id="Path-30" stroke-width="5"></path>
                <path d="M95.8808594,13.495127 L95.8808594,52.4999984" id="Path-31" stroke-width="5"></path>
                <path d="M127.880859,10.495127 L127.880859,47.4999984" id="Path-32" stroke-width="5"></path>
                <path d="M147.880859,7.49512702 L147.880859,41.4999984" id="Path-33" stroke-width="5"></path>
                <path d="M163.880859,6.35748567 L163.880859,29.5000009" id="Path-34" stroke-width="5"></path>
                <path d="M178.880859,2.35748567 L178.839844,18.4747897" id="Path-35" stroke-width="5"></path>
            </g>
        </g>
    </g>
</svg>