<?xml version="1.0" standalone="no"?>
<!DOCTYPE svg PUBLIC "-//W3C//DTD SVG 20010904//EN"
 "http://www.w3.org/TR/2001/REC-SVG-20010904/DTD/svg10.dtd">
<svg version="1.0" xmlns="http://www.w3.org/2000/svg"
 width="16.000000pt" height="16.000000pt" viewBox="0 0 16.000000 16.000000"
 preserveAspectRatio="xMidYMid meet">
<metadata>
Created by potrace 1.11, written by Peter Selinger 2001-2013
</metadata>
<g transform="translate(0.000000,16.000000) scale(0.006154,-0.006154)"
fill="#000000" stroke="none">
<path d="M1099 2434 c-157 -30 -294 -85 -429 -172 -98 -63 -256 -217 -319
-309 -91 -136 -157 -300 -185 -458 -16 -93 -19 -288 -5 -360 5 -27 12 -65 15
-84 10 -58 55 -183 96 -266 109 -218 295 -404 515 -515 76 -38 207 -84 268
-94 17 -3 53 -10 80 -15 28 -6 118 -9 200 -7 120 4 169 9 245 29 132 35 226
76 335 145 219 139 391 356 473 600 16 48 32 101 36 117 3 17 8 44 12 60 14
67 13 310 -2 394 -64 357 -297 669 -623 831 -98 49 -208 85 -314 104 -99 17
-307 17 -398 0z m366 -287 c339 -81 575 -302 667 -624 32 -111 32 -333 0 -446
-86 -312 -344 -555 -657 -620 -89 -19 -269 -19 -354 0 -316 71 -570 315 -655
628 -22 81 -30 243 -17 338 49 350 316 638 665 717 62 14 111 18 206 15 69 -2
134 -5 145 -8z"/>
</g>
</svg>
