<?xml version="1.0" encoding="utf-8"?>
<!-- Generated by IcoMoon.io -->
<!DOCTYPE svg PUBLIC "-//W3C//DTD SVG 1.1//EN" "http://www.w3.org/Graphics/SVG/1.1/DTD/svg11.dtd">

<svg version="1.1" xmlns="http://www.w3.org/2000/svg" xmlns:xlink="http://www.w3.org/1999/xlink" width="272" height="32" viewBox="0 0 272 32">
<defs>
<g id="icon-heart">
	<path class="path1" d="M29.193 5.265c-3.629-3.596-9.432-3.671-13.191-0.288-3.76-3.383-9.561-3.308-13.192 0.288-3.741 3.704-3.741 9.709 0 13.415 1.069 1.059 11.053 10.941 11.053 10.941 1.183 1.172 3.096 1.172 4.278 0 0 0 10.932-10.822 11.053-10.941 3.742-3.706 3.742-9.711-0.001-13.415zM27.768 17.268l-11.053 10.941c-0.393 0.391-1.034 0.391-1.425 0l-11.053-10.941c-2.95-2.92-2.95-7.671 0-10.591 2.844-2.815 7.416-2.914 10.409-0.222l1.356 1.22 1.355-1.22c2.994-2.692 7.566-2.594 10.41 0.222 2.95 2.919 2.95 7.67 0.001 10.591zM9.253 7.501c0.277 0 0.5 0.224 0.5 0.5s-0.224 0.5-0.5 0.5h-0.001c-1.794 0-3.249 1.455-3.249 3.249v0.001c0 0.276-0.224 0.5-0.5 0.5s-0.5-0.224-0.5-0.5v0c0-2.346 1.901-4.247 4.246-4.249 0.002 0 0.002-0.001 0.004-0.001z" />
</g>
<g id="icon-cloud">
	<path class="path1" d="M25.914 13.143c-0.437-4.563-4.236-8.143-8.914-8.143-3.619 0-6.717 2.148-8.146 5.23-0.43-0.136-0.878-0.23-1.353-0.23-2.485 0-4.5 2.016-4.5 4.5 0 0.494 0.099 0.961 0.246 1.404-1.933 1.127-3.246 3.195-3.246 5.594 0 3.59 2.91 6.5 6.5 6.5v0.002l17.999-0.002c4.143 0 7.5-3.357 7.5-7.5 0-3.656-2.621-6.693-6.086-7.355zM24.5 25.998v0.002h-17.999c-2.481-0.002-4.5-2.020-4.5-4.502 0-1.6 0.843-3.045 2.254-3.867 1.371-0.787 1.465-0.943 0.89-2.357-0.097-0.291-0.144-0.544-0.144-0.773 0-1.379 1.121-2.5 2.5-2.5 0 0 0.656-0.047 1.353 0.23 1.147 0.457 1.272 0.020 1.814-1.159 1.147-2.473 3.632-4.072 6.332-4.072 3.6 0 6.576 2.723 6.924 6.334 0.123 1.432 0.123 1.432 1.615 1.773 2.586 0.494 4.461 2.762 4.461 5.391 0 3.033-2.467 5.5-5.5 5.5z" />
</g>
<g id="icon-star">
	<path class="path1" d="M31.881 12.557c-0.277-0.799-0.988-1.384-1.844-1.511l-8.326-1.238-3.619-7.514c-0.381-0.789-1.196-1.294-2.092-1.294s-1.711 0.505-2.092 1.294l-3.619 7.514-8.327 1.238c-0.855 0.127-1.566 0.712-1.842 1.511-0.275 0.801-0.067 1.683 0.537 2.285l6.102 6.092-1.415 8.451c-0.144 0.851 0.225 1.705 0.948 2.203 0.397 0.273 0.864 0.412 1.331 0.412 0.384 0 0.769-0.094 1.118-0.281l7.259-3.908 7.26 3.908c0.349 0.187 0.734 0.281 1.117 0.281 0.467 0 0.934-0.139 1.332-0.412 0.723-0.498 1.090-1.352 0.947-2.203l-1.416-8.451 6.104-6.092c0.603-0.603 0.81-1.485 0.537-2.285zM23.588 19.363c-0.512 0.51-0.744 1.229-0.627 1.934l1.416 8.451-7.26-3.906c-0.348-0.188-0.732-0.281-1.118-0.281-0.384 0-0.769 0.094-1.117 0.281l-7.26 3.906 1.416-8.451c0.118-0.705-0.114-1.424-0.626-1.934l-6.102-6.092 8.326-1.24c0.761-0.113 1.416-0.589 1.743-1.268l3.621-7.512 3.62 7.513c0.328 0.679 0.982 1.154 1.742 1.268l8.328 1.24-6.102 6.091z" />
</g>
<g id="icon-paperplane">
	<path class="path1" d="M31.543 0.16c-0.166-0.107-0.355-0.16-0.543-0.16-0.193 0-0.387 0.055-0.555 0.168l-30 20c-0.309 0.205-0.479 0.566-0.439 0.936 0.038 0.369 0.278 0.688 0.623 0.824l7.824 3.131 3.679 6.438c0.176 0.309 0.503 0.5 0.857 0.504 0.004 0 0.007 0 0.011 0 0.351 0 0.677-0.186 0.857-0.486l2.077-3.463 9.695 3.877c0.119 0.048 0.244 0.071 0.371 0.071 0.17 0 0.338-0.043 0.49-0.129 0.264-0.148 0.445-0.408 0.496-0.707l5-30c0.065-0.393-0.109-0.787-0.443-1.004zM3.136 20.777l23.175-15.451-16.85 18.037c-0.089-0.053-0.168-0.123-0.266-0.162l-6.059-2.424zM10.189 24.066c-0.002-0.004-0.005-0.006-0.007-0.010l18.943-20.275-16.149 25.162-2.787-4.877zM25.217 29.609l-8.541-3.416c-0.203-0.080-0.414-0.107-0.623-0.119l13.152-20.388-3.988 23.923z" />
</g>
<g id="icon-megaphone">
	<path class="path1" d="M25 0c-2.053 0-3.666 1.41-4.824 3.586l-0.021-0.012c-1.682 3.293-4.186 5.426-6.929 5.426h-9.226c-2.243 0-4 2.197-4 5 0 2.805 1.757 5 4 5 1.103 0.004 1.995 0.896 1.995 2v9c0 1.105 0.896 2 2 2h4c1.104 0 2-0.895 2-2v-1c0-1-1-1.447-1-2v-7c0-0.023 0.016-0.039 0.018-0.062 0.010-0.143 0.049-0.275 0.112-0.395 0.018-0.033 0.037-0.059 0.059-0.088 0.080-0.119 0.181-0.217 0.304-0.293 0.006-0.004 0.008-0.010 0.014-0.014 0.004 0 0.007-0.004 0.011-0.004 0.080-0.045 0.176-0.055 0.266-0.080 2.524 0.268 4.809 2.305 6.377 5.373l0.025-0.012c1.159 2.169 2.768 3.575 4.819 3.575 4.596 0 7-7.043 7-14s-2.404-14-7-14zM20 14c0-1.037 0.061-2.039 0.164-3h2.836c1.104 0 2 1.344 2 3 0 1.658-0.896 3-2 3h-2.836c-0.103-0.961-0.164-1.961-0.164-3zM2 14c0-1.656 0.896-3 2-3h7.014c-0.62 0.729-1.014 1.787-1.014 3 0 1.215 0.394 2.273 1.014 3h-7.014c-1.104 0-2-1.342-2-3zM11.995 30h-4v-9c0-0.729-0.195-1.41-0.537-2h0.698v0.012h3.008c-0.107 0.311-0.169 0.641-0.169 0.988v7c0 0.963 0.538 1.604 0.859 1.986 0.044 0.053 0.096 0.107 0.141 0.166v0.848zM13.226 17.012h-0.226v-0.012c-1.104 0-2-1.342-2-3 0-1.656 0.896-3 2-3h0.226c1.886 0 3.652-0.742 5.206-2.018-0.286 1.61-0.432 3.315-0.432 5.018 0 1.709 0.146 3.42 0.434 5.031-1.555-1.277-3.322-2.019-5.208-2.019zM25 26c-2.018 0-3.75-2.871-4.541-7h2.541c2.242 0 4-2.195 4-5 0-2.803-1.758-5-4-5h-2.541c0.791-4.127 2.523-7 4.541-7 2.762 0 5 5.373 5 12s-2.238 12-5 12z" />
</g>
<g id="icon-lab">
	<path class="path1" d="M20.682 3.732c-0.473-0.472-1.1-0.732-1.768-0.732s-1.295 0.26-1.77 0.733l-1.41 1.412c-0.473 0.472-0.734 1.1-0.734 1.769 0 0.471 0.129 0.922 0.371 1.313l-13.577 5.439c-0.908 0.399-1.559 1.218-1.742 2.189-0.185 0.977 0.125 1.979 0.834 2.687l12.72 12.58c0.548 0.548 1.276 0.859 2.045 0.877 0.018 0.001 0.060 0.001 0.078 0.001 0.202 0 0.407-0.021 0.61-0.062 0.994-0.206 1.808-0.893 2.177-1.828l5.342-13.376c0.402 0.265 0.875 0.407 1.367 0.407 0.67 0 1.297-0.261 1.768-0.733l1.407-1.408c0.477-0.474 0.738-1.103 0.738-1.773s-0.262-1.3-0.732-1.768l-7.724-7.727zM16.659 29.367c-0.124 0.313-0.397 0.544-0.727 0.612-0.076 0.016-0.153 0.022-0.229 0.021-0.254-0.006-0.499-0.108-0.682-0.292l-12.728-12.588c-0.234-0.233-0.337-0.567-0.275-0.893 0.061-0.324 0.279-0.598 0.582-0.73l6.217-2.49c4.189 1.393 8.379 0.051 12.57 4.522l-4.728 11.838zM26.992 13.58l-1.414 1.413c-0.195 0.196-0.512 0.196-0.707 0l-1.768-1.767-1.432 3.589 0.119-0.303c-3.010-3.005-6.069-3.384-8.829-3.723-0.887-0.109-1.747-0.223-2.592-0.405l8.491-3.401-1.715-1.715c-0.195-0.195-0.195-0.512 0-0.707l1.414-1.415c0.195-0.195 0.512-0.195 0.707 0l7.725 7.727c0.198 0.195 0.198 0.512 0.001 0.707zM16.5 21c1.378 0 2.5-1.121 2.5-2.5s-1.121-2.5-2.5-2.5c-1.379 0-2.5 1.121-2.5 2.5s1.122 2.5 2.5 2.5zM16.5 17c0.828 0 1.5 0.672 1.5 1.5s-0.672 1.5-1.5 1.5c-0.829 0-1.5-0.672-1.5-1.5s0.671-1.5 1.5-1.5zM29.5 0c-1.379 0-2.5 1.121-2.5 2.5s1.121 2.5 2.5 2.5 2.5-1.121 2.5-2.5-1.121-2.5-2.5-2.5zM29.5 4c-0.828 0-1.5-0.672-1.5-1.5s0.672-1.5 1.5-1.5 1.5 0.672 1.5 1.5-0.672 1.5-1.5 1.5zM8 17c0 1.103 0.897 2 2 2s2-0.897 2-2-0.897-2-2-2-2 0.897-2 2zM10 16c0.552 0 1 0.447 1 1s-0.448 1-1 1-1-0.447-1-1 0.448-1 1-1zM12 23c0-0.552 0.448-1 1-1s1 0.448 1 1c0 0.552-0.448 1-1 1-0.552 0-1-0.448-1-1zM28 8c0-0.552 0.448-1 1-1s1 0.448 1 1c0 0.552-0.448 1-1 1-0.552 0-1-0.448-1-1z" />
</g>
</defs>

<g fill="#000000">
	<use xlink:href="#icon-heart" transform="translate(0 0)"></use>
	<use xlink:href="#icon-cloud" transform="translate(48 0)"></use>
	<use xlink:href="#icon-star" transform="translate(96 0)"></use>
	<use xlink:href="#icon-paperplane" transform="translate(144 0)"></use>
	<use xlink:href="#icon-megaphone" transform="translate(192 0)"></use>
	<use xlink:href="#icon-lab" transform="translate(240 0)"></use>
</g>

</svg>
