<svg  viewBox="-15 -15 230 252" xmlns="http://www.w3.org/2000/svg"><defs><linearGradient x1="50%" y1="100%" x2="50%" y2="0%" id="linearGradient-1"><stop stop-color="#A8CD4B" offset="0%"/><stop stop-color="#98C55B" offset="90%"/></linearGradient><linearGradient x1="100%" y1="71.244%" x2="0%" y2="28.756%" id="linearGradient-2"><stop stop-color="#98C55B" offset="0%"/><stop stop-color="#79B580" offset="90%"/></linearGradient><linearGradient x1="100%" y1="28.756%" x2="0%" y2="71.244%" id="linearGradient-3"><stop stop-color="#79B580" offset="0%"/><stop stop-color="#5AA5A7" offset="80%"/></linearGradient><linearGradient x1="0%" y1="28.756%" x2="100%" y2="71.244%" id="linearGradient-4"><stop stop-color="#5AA5A7" offset="0%"/><stop stop-color="#4A94B1" offset="90%"/></linearGradient><linearGradient x1="50%" y1="0%" x2="50%" y2="100%" id="linearGradient-5"><stop stop-color="#4A94B1" offset="0%"/><stop stop-color="#49839F" offset="80%"/></linearGradient><linearGradient x1="100%" y1="28.756%" x2="0%" y2="71.244%" id="linearGradient-6"><stop stop-color="#466D85" offset="0%"/><stop stop-color="#49839F" offset="70%"/></linearGradient><linearGradient x1="100%" y1="71.244%" x2="0%" y2="28.756%" id="linearGradient-7"><stop stop-color="#49839F" offset="30%"/><stop stop-color="#47728B" offset="90%"/></linearGradient><linearGradient x1="50%" y1="100%" x2="50%" y2="0%" id="linearGradient-8"><stop stop-color="#47728B" offset="0%"/><stop stop-color="#456A81" offset="100%"/></linearGradient></defs><g id="Page-1" stroke="none" stroke-width="1" fill="none" fill-rule="evenodd"><g ransform="translate(14 14)" fill-rule="nonzero"><g id="wsd"><path d="M199.784 41.35c7.628 0 13.83 6.1 13.997 13.688l.003.312v55.292c0 7.732-6.268 14-14 14-7.627 0-13.83-6.1-13.997-13.687l-.003-.313V55.35c0-7.732 6.268-14 14-14z" id="Path" fill="url(#linearGradient-1)"/><path d="M87.754-6.727c3.694-6.666 12.026-9.137 18.74-5.617l.291.157 99.785 55.292c6.763 3.747 9.207 12.268 5.46 19.03-3.694 6.667-12.026 9.138-18.74 5.618l-.291-.157-99.784-55.292C86.45 8.557 84.007.036 87.755-6.726z" id="Path" fill="url(#linearGradient-2)"/><path d="M93.215-12.187c6.763-3.747 15.283-1.303 19.03 5.46 3.695 6.667 1.372 15.04-5.172 18.868l-.288.163L7.001 67.596c-6.763 3.748-15.283 1.303-19.03-5.46-3.695-6.667-1.372-15.04 5.172-18.868l.287-.163 99.785-55.292z" id="Path" fill="url(#linearGradient-3)"/><path d="M-12.03 48.565c3.694-6.667 12.026-9.137 18.74-5.617l.291.157 99.784 55.291c6.764 3.748 9.208 12.268 5.46 19.031-3.693 6.667-12.025 9.137-18.74 5.617l-.29-.156L-6.57 67.596c-6.763-3.748-9.207-12.268-5.46-19.031z" id="Path" fill="url(#linearGradient-4)"/><path d="M100 96.642c7.627 0 13.83 6.1 13.997 13.687l.003.313v110.583c0 7.732-6.268 14-14 14-7.628 0-13.83-6.1-13.997-13.687l-.003-.313V110.642c0-7.732 6.268-14 14-14z" id="Path" fill="url(#linearGradient-5)"/><path d="M192.999 153.688c6.763-3.748 15.283-1.303 19.03 5.46 3.695 6.666 1.372 15.04-5.172 18.868l-.287.163-99.785 55.292c-6.763 3.747-15.283 1.303-19.03-5.46-3.695-6.667-1.372-15.041 5.172-18.868l.288-.164 99.784-55.291z" id="Path" fill="url(#linearGradient-6)"/><path d="M-12.03 159.148c3.694-6.667 12.026-9.137 18.74-5.617l.291.157 99.784 55.291c6.764 3.748 9.208 12.268 5.46 19.032-3.693 6.666-12.025 9.137-18.74 5.617l-.29-.157-99.785-55.292c-6.763-3.747-9.207-12.268-5.46-19.031z" id="Path" fill="url(#linearGradient-7)"/><path d="M.216 96.642c7.627 0 13.83 6.1 13.997 13.687l.003.313v55.291c0 7.732-6.268 14-14 14-7.628 0-13.83-6.1-13.997-13.687l-.003-.313v-55.291c0-7.732 6.268-14 14-14z" id="Path" fill="url(#linearGradient-8)"/></g></g></g></svg>
