<svg viewBox="0 0 93 114" xmlns="http://www.w3.org/2000/svg"><g id="apple" fill="#B3B3B3"><path d="M76.96 60.13c-.128-14.323 11.698-21.199 12.233-21.534-6.655-9.736-17.011-11.07-20.706-11.227-8.809-.891-17.197 5.186-21.662 5.186s-11.37-5.057-18.673-4.915c-9.615.143-18.467 5.585-23.417 14.187-9.978 17.31-2.546 42.967 7.169 57.018 4.757 6.87 10.42 14.608 17.867 14.323 7.175-.286 9.886-4.637 18.545-4.637 8.659 0 11.098 4.637 18.68 4.501 7.71-.15 12.604-7.018 17.325-13.908 5.45-7.975 7.704-15.692 7.832-16.099-.171-.071-15.036-5.77-15.192-22.896"/><path d="M62.716 18.074c3.952-4.786 6.62-11.44 5.885-18.074-5.693.228-12.582 3.795-16.67 8.58-3.658 4.23-6.868 11.006-5.998 17.504 6.348.493 12.831-3.231 16.783-8.01"/></g></svg>
