<svg viewBox="0 0 32 32" xmlns="http://www.w3.org/2000/svg"><g id="32"><rect rx="8" id="back" fill="#F2E9D7" x="0" y="0" width="32" height="32"/><g id="boxes" transform="translate(0 4)"><rect fill="#39B54A" x="4" y="12" width="4" height="4"/><rect fill="#39B54A" x="0" y="12" width="4" height="4"/><rect fill="#39B54A" x="4" y="8" width="4" height="4"/><rect fill="#A8BD04" x="8" y="8" width="4" height="4"/><rect fill="#DD4A38" x="8" y="4" width="4" height="4"/><rect fill="#A8BD04" x="12" y="8" width="4" height="4"/><rect fill="#A8BD04" x="20" y="8" width="4" height="4"/><rect fill="#A8BD04" x="24" y="8" width="4" height="4"/><rect fill="#A8BD04" x="20" y="4" width="4" height="4"/><rect fill="#DD4A38" x="12" y="0" width="4" height="4"/><rect fill="#A8BD04" x="12" y="4" width="4" height="4"/><rect fill="#39B54A" x="8" y="12" width="4" height="4"/><rect fill="#67C16D" x="8" y="16" width="4" height="4"/><rect fill="#67C16D" x="12" y="16" width="4" height="4"/><rect fill="#67C16D" x="20" y="16" width="4" height="4"/><rect fill="#67C16D" x="12" y="20" width="4" height="4"/><rect fill="#39B54A" x="12" y="12" width="4" height="4"/><rect fill="#DD4A38" x="16" y="12" width="4" height="4"/><rect fill="#39B54A" x="20" y="12" width="4" height="4"/><rect fill="#39B54A" x="24" y="12" width="4" height="4"/><rect fill="#39B54A" x="28" y="12" width="4" height="4"/></g></g></svg>
