<svg viewBox="0 0 23 32" xmlns="http://www.w3.org/2000/svg"><path d="M.781 14.191v13.113c0 2.544 4.744 4.606 10.597 4.606 5.852 0 10.597-2.062 10.597-4.606V14.19s-.441 4.478-10.597 4.478C1.222 18.669.781 14.19.781 14.19z" fill="#9EAAB2"/><ellipse id="Oval" fill="#8E979A" cx="11.378" cy="14.191" rx="10.597" ry="4.606"/><g id="Group"><path d="M20.555 14.717s-1.866 2.627-9.177 2.627S2.2 14.717 2.2 14.717V9.013s2.642 1.799 8.961 1.799c6.319 0 9.393-1.799 9.393-1.799v5.704z" fill="#213F48"/><path d="M11.378 0C5.094 0 0 2.003 0 4.473v1.953c0 2.47 5.094 4.472 11.378 4.472s11.378-2.002 11.378-4.472V4.473C22.756 2.003 17.662 0 11.378 0z" fill="#9EAAB2"/><circle id="Oval" fill="#51C3F1" cx="15.927" cy="13.536" r="1.386"/><circle cx="1.562" cy="1.447" r="1.386" transform="translate(5.244 12.089)" fill="#51C3F1" id="Oval"/><path d="M19.276 9.645v-2.17s3.08-.947 3.48-3.002v1.953c0 1.264-1.335 2.405-3.48 3.219zM3.48 9.645V7.45C1.055 6.693.11 5.32 0 4.473v1.952c0 1.264 1.334 2.406 3.48 3.22z" fill="#8E979A"/><path d="M11.378 8.591C5.245 8.591.248 6.684.01 4.296a1.79 1.79 0 00-.01.177c0 2.47 5.094 4.473 11.378 4.473s11.378-2.003 11.378-4.473c0-.06-.004-.118-.01-.177-.237 2.388-5.236 4.295-11.368 4.295z" fill="#DBE1E3"/></g><path d="M21.368 15.608c.127-.178.231-.368.329-.562.108-.188.201-.383.278-.584v12.842c0 1.18-1.02 2.255-2.698 3.07V17.15a7.05 7.05 0 001.28-.773c.3-.23.591-.458.811-.768zM2.198 16.376c-.299-.23-.59-.458-.81-.768a4.327 4.327 0 01-.33-.562 4.067 4.067 0 01-.277-.584v12.842c0 1.18 1.02 2.255 2.698 3.07V17.15a7.053 7.053 0 01-1.28-.773z" fill="#8E979A"/><path d="M11.378 31.566c-5.708 0-10.36-1.908-10.581-4.296-.006.06-.01.118-.01.178 0 2.47 4.742 4.473 10.59 4.473 5.85 0 10.591-2.003 10.591-4.473 0-.06-.003-.119-.009-.178-.22 2.388-4.873 4.296-10.581 4.296z" fill="#8E979A"/><path d="M11.378 18.487c-5.708 0-10.36-1.908-10.581-4.296a1.9 1.9 0 00-.01.178c0 2.47 4.742 4.473 10.59 4.473 5.85 0 10.591-2.003 10.591-4.473 0-.06-.003-.119-.009-.178-.22 2.388-4.873 4.296-10.581 4.296zM11.378 30.098c-5.708 0-10.36-1.907-10.581-4.295-.006.06-.01.118-.01.178 0 2.47 4.742 4.472 10.59 4.472 5.85 0 10.591-2.002 10.591-4.472 0-.06-.003-.119-.009-.178-.22 2.388-4.873 4.295-10.581 4.295z" fill="#DBE1E3"/><path d="M20.11 20.666c-.842.546-2.411 1.563-5.54 2.268.449 2.386.449 2.386 1.04 5.512 1.083-.322 3.336-.993 5.161-2.498a398.345 398.345 0 00-.66-5.282" fill="#F5DD3E"/></svg>
