<svg xmlns="http://www.w3.org/2000/svg" viewBox="0 0 22.25 27"><title>SitePoint</title><path d="M0.67,11.87 L2.62,13.76 L8.76,19.50 L11.41,16.94 C11.65,16.61 11.64,16.16 11.36,15.84 L8.94,13.72 L8.95,13.72 L6.34,11.19 C6.04,10.84 6.04,10.32 6.37,9.99 L13.38,3.21 L10.20,0.12 L0.68,9.31 C-0.05,10.02 -0.05,11.17 0.67,11.87"></path><path d="M21.60,15.15 L19.66,13.27 L13.51,7.53 L10.86,10.08 C10.62,10.42 10.64,10.87 10.91,11.19 L13.33,13.31 L13.33,13.31 L15.93,15.84 C16.24,16.19 16.23,16.70 15.91,17.04 L8.89,23.82 L12.08,26.91 L19.65,19.60 L21.60,17.71 C22.33,17.01 22.33,15.86 21.60,15.15" id="Fill-11"></path></svg>
