<svg viewBox="0 0 64 64" xmlns="http://www.w3.org/2000/svg"><path  fill="#E43A2C" d="M17.543 7.125c-.418.403-.81.833-1.174 1.287-1.96 2.435-2.98 5.417-3.06 8.953l-.004.445c.002 5.505 2.629 10.126 7.848 13.886l.337.239c1.901 1.316 4.117 2.535 6.67 3.64l1.577.667c4.246 1.82 7.134 3.407 8.67 4.775 1.639 1.465 2.466 3.326 2.466 5.611-.012 3.886-2.726 5.834-8.193 5.834-5.098 0-9.694-1.555-13.783-4.67l-.407-.317-4.99 11.154c3.617 1.937 6.593 3.23 8.937 3.896l.316.087.373.09-4.782 1.105a6.306 6.306 0 01-7.494-4.497l-.056-.223-9.642-41.725a6.296 6.296 0 014.44-7.477l.285-.072 11.666-2.688zm31.79 25.166c-3.198-2.169-5.906-3.703-8.123-4.604l-1.532-.612c-4.747-1.917-7.868-3.459-9.378-4.61-1.602-1.237-2.417-2.606-2.417-4.15 0-3.887 2.453-5.832 7.348-5.832 5.286 0 9.46 1.23 12.496 3.687l.29.242L52.042 5.51a38.185 38.185 0 00-8.344-3.094l-.656-.153-.056.014-2.41-.454L47.6.193a6.306 6.306 0 017.496 4.492l.057.224 9.642 41.723h.057a6.276 6.276 0 01-4.5 7.495l-.224.055-7.955 1.837c2.218-2.816 3.336-6.26 3.336-10.34 0-4.178-1.157-7.75-3.47-10.702-.502-.623-1.404-1.519-2.706-2.686z" id="Shape"/></svg>
