<!-- Copyright © 2020 Apple Inc. All rights reserved. -->
<svg viewBox="0 0 510 552" xmlns="http://www.w3.org/2000/svg"><path d="M477.861 306.928c34.185 26.66 34.185 70.518 0 97.393L317.015 530.737c-34.185 26.66-89.845 26.66-124.03 0L32.139 404.536c-34.185-26.66-34.185-70.519 0-97.393l160.846-126.417c34.185-26.659 89.845-26.659 124.03 0l160.846 126.202z" fill="#FF9D00" id="base"/><path d="M193.37 451.832L31.812 324.86C15.524 312.098 6.5 295.01 6.5 276.84s9.024-35.258 25.312-48.02L193.37 101.632c16.288-12.762 38.299-19.9 61.63-19.9 23.331 0 45.122 7.138 61.63 19.9l161.558 126.972c16.288 12.762 25.312 29.85 25.312 48.02s-9.024 35.258-25.312 48.02L316.63 451.615c-16.508 12.979-38.299 20.117-61.63 20.117-23.331 0-45.122-7.138-61.63-19.9z" fill="rgba(0, 0, 0, 0.1)" id="mid-shadow"/><path d="M193.37 451.832L31.812 324.86C15.524 312.098 6.5 295.01 6.5 276.84s9.024-35.258 25.312-48.02L193.37 101.632c16.288-12.762 38.299-19.9 61.63-19.9 23.331 0 45.122 7.138 61.63 19.9l161.558 126.972c16.288 12.762 25.312 29.85 25.312 48.02s-9.024 35.258-25.312 48.02L316.63 451.615c-16.508 12.979-38.299 20.117-61.63 20.117-23.331 0-45.122-7.138-61.63-19.9z" fill="#FC0" id="mid"/><path d="M193.37 371.832L31.812 244.86C15.524 232.098 6.5 215.01 6.5 196.84s9.024-35.258 25.312-48.02L193.37 21.632C209.658 8.87 231.67 1.732 255 1.732c23.331 0 45.122 7.138 61.63 19.9l161.558 126.972c16.288 12.762 25.312 29.85 25.312 48.02s-9.024 35.258-25.312 48.02L316.63 371.615c-16.508 12.979-38.299 20.117-61.63 20.117-23.331 0-45.122-7.138-61.63-19.9z" fill="rgba(0, 0, 0, 0.1)" id="top-shadow"/><path d="M193.37 371.832L31.812 244.86C15.524 232.098 6.5 215.01 6.5 196.84s9.024-35.258 25.312-48.02L193.37 21.632C209.658 8.87 231.67 1.732 255 1.732c23.331 0 45.122 7.138 61.63 19.9l161.558 126.972c16.288 12.762 25.312 29.85 25.312 48.02s-9.024 35.258-25.312 48.02L316.63 371.615c-16.508 12.979-38.299 20.117-61.63 20.117-23.331 0-45.122-7.138-61.63-19.9z" fill="#1890EF" id="top"/><path d="M255.558 318.523c82.555 0 149.48-54.705 149.48-122.187S338.113 74.148 255.558 74.148c-82.556 0-149.48 54.706-149.48 122.188s66.924 122.187 149.48 122.187zm0 12.579c-91.054 0-164.868-60.337-164.868-134.766 0-74.43 73.814-134.766 164.868-134.766s164.867 60.337 164.867 134.766c0 74.429-73.813 134.766-164.867 134.766z" fill="#fff" id="ring"/><path d="M266.576 248.2c8.263-1.083 16.318-3.387 23.691-6.911l47.054 19.341-24.647-36.924c12.965-16.701 12.965-37.855 0-54.557l24.647-36.924-44.346 18.229-1.275 19.499c18.13 15.204 17.666 39.216-1.172 53.894-4.807 3.845-10.326 6.543-16.123 8.46l-7.83 15.892zM244.58 144.623c-13.649 1.775-23.879 6.942-23.879 6.942l-47.01-19.34 24.647 36.923c-12.965 16.702-12.965 37.856 0 54.557L173.69 260.63l45.559-18.727.97-18.262c-19.057-15.16-18.905-39.413.31-54.639 4.471-4.002 14.577-8.24 16.093-8.465l7.958-15.913z" fill="#8CC8F6" id="rosette"/><path d="M232.944 192.305l-6.261 110.997 50.706-102.943L284.65 89.57l-51.706 102.735zm-.655 89.664l40.615-82.406-35.591-6.494-5.024 88.9z" fill="#fff" fill-rule="evenodd" id="needle"/></svg>
