<svg xmlns="http://www.w3.org/2000/svg" xmlns:xlink="http://www.w3.org/1999/xlink" width="272" height="32" viewBox="0 0 272 32"><defs><path class="path1" d="M29.193 5.265c-3.629-3.596-9.432-3.671-13.191-.288-3.76-3.383-9.561-3.308-13.192.288-3.741 3.704-3.741 9.709 0 13.415 1.069 1.059 11.053 10.941 11.053 10.941 1.183 1.172 3.096 1.172 4.278 0 0 0 10.932-10.822 11.053-10.941 3.742-3.706 3.742-9.711-.001-13.415zm-1.425 12.003l-11.053 10.941c-.393.391-1.034.391-1.425 0l-11.053-10.941c-2.95-2.92-2.95-7.671 0-10.591 2.844-2.815 7.416-2.914 10.409-.222l1.356 1.22 1.355-1.22c2.994-2.692 7.566-2.594 10.41.222 2.95 2.919 2.95 7.67.001 10.591zm-18.515-9.767c.277 0 .5.224.5.5s-.224.5-.5.5h-.001c-1.794 0-3.249 1.455-3.249 3.249v.001c0 .276-.224.5-.5.5s-.5-.224-.5-.5c0-2.346 1.901-4.247 4.246-4.249l.004-.001z" id="a"/><path class="path1" d="M25.914 13.143c-.437-4.563-4.236-8.143-8.914-8.143-3.619 0-6.717 2.148-8.146 5.23-.43-.136-.878-.23-1.353-.23-2.485 0-4.5 2.016-4.5 4.5 0 .494.099.961.246 1.404-1.933 1.127-3.246 3.195-3.246 5.594 0 3.59 2.91 6.5 6.5 6.5v.002l17.999-.002c4.143 0 7.5-3.357 7.5-7.5 0-3.656-2.621-6.693-6.086-7.355zm-1.414 12.855v.002h-17.999c-2.481-.002-4.5-2.02-4.5-4.502 0-1.6.843-3.045 2.254-3.867 1.371-.787 1.465-.943.89-2.357-.097-.291-.144-.544-.144-.773 0-1.379 1.121-2.5 2.5-2.5 0 0 .656-.047 1.353.23 1.147.457 1.272.02 1.814-1.159 1.147-2.473 3.632-4.072 6.332-4.072 3.6 0 6.576 2.723 6.924 6.334.123 1.432.123 1.432 1.615 1.773 2.586.494 4.461 2.762 4.461 5.391 0 3.033-2.467 5.5-5.5 5.5z" id="b"/><path class="path1" d="M31.881 12.557c-.277-.799-.988-1.384-1.844-1.511l-8.326-1.238-3.619-7.514c-.381-.789-1.196-1.294-2.092-1.294s-1.711.505-2.092 1.294l-3.619 7.514-8.327 1.238c-.855.127-1.566.712-1.842 1.511-.275.801-.067 1.683.537 2.285l6.102 6.092-1.415 8.451c-.144.851.225 1.705.948 2.203.397.273.864.412 1.331.412.384 0 .769-.094 1.118-.281l7.259-3.908 7.26 3.908c.349.187.734.281 1.117.281.467 0 .934-.139 1.332-.412.723-.498 1.09-1.352.947-2.203l-1.416-8.451 6.104-6.092c.603-.603.81-1.485.537-2.285zm-8.293 6.806c-.512.51-.744 1.229-.627 1.934l1.416 8.451-7.26-3.906c-.348-.188-.732-.281-1.118-.281-.384 0-.769.094-1.117.281l-7.26 3.906 1.416-8.451c.118-.705-.114-1.424-.626-1.934l-6.102-6.092 8.326-1.24c.761-.113 1.416-.589 1.743-1.268l3.621-7.512 3.62 7.513c.328.679.982 1.154 1.742 1.268l8.328 1.24-6.102 6.091z" id="c"/><path class="path1" d="M31.543.16c-.166-.107-.355-.16-.543-.16-.193 0-.387.055-.555.168l-30 20c-.309.205-.479.566-.439.936.038.369.278.688.623.824l7.824 3.131 3.679 6.438c.176.309.503.5.857.504h.011c.351 0 .677-.186.857-.486l2.077-3.463 9.695 3.877c.119.048.244.071.371.071.17 0 .338-.043.49-.129.264-.148.445-.408.496-.707l5-30c.065-.393-.109-.787-.443-1.004zm-28.407 20.617l23.175-15.451-16.85 18.037-.266-.162-6.059-2.424zm7.053 3.289l-.007-.01 18.943-20.275-16.149 25.162-2.787-4.877zm15.028 5.543l-8.541-3.416c-.203-.08-.414-.107-.623-.119l13.152-20.388-3.988 23.923z" id="d"/><path class="path1" d="M25 0c-2.053 0-3.666 1.41-4.824 3.586l-.021-.012c-1.682 3.293-4.186 5.426-6.929 5.426h-9.226c-2.243 0-4 2.197-4 5 0 2.805 1.757 5 4 5 1.103.004 1.995.896 1.995 2v9c0 1.105.896 2 2 2h4c1.104 0 2-.895 2-2v-1c0-1-1-1.447-1-2v-7l.018-.062c.01-.143.049-.275.112-.395l.059-.088c.08-.119.181-.217.304-.293l.014-.014.011-.004.266-.08c2.524.268 4.809 2.305 6.377 5.373l.025-.012c1.159 2.169 2.768 3.575 4.819 3.575 4.596 0 7-7.043 7-14s-2.404-14-7-14zm-5 14c0-1.037.061-2.039.164-3h2.836c1.104 0 2 1.344 2 3 0 1.658-.896 3-2 3h-2.836c-.103-.961-.164-1.961-.164-3zm-18 0c0-1.656.896-3 2-3h7.014c-.62.729-1.014 1.787-1.014 3 0 1.215.394 2.273 1.014 3h-7.014c-1.104 0-2-1.342-2-3zm9.995 16h-4v-9c0-.729-.195-1.41-.537-2h.698v.012h3.008c-.107.311-.169.641-.169.988v7c0 .963.538 1.604.859 1.986l.141.166v.848zm1.231-12.988h-.226v-.012c-1.104 0-2-1.342-2-3 0-1.656.896-3 2-3h.226c1.886 0 3.652-.742 5.206-2.018-.286 1.61-.432 3.315-.432 5.018 0 1.709.146 3.42.434 5.031-1.555-1.277-3.322-2.019-5.208-2.019zm11.774 8.988c-2.018 0-3.75-2.871-4.541-7h2.541c2.242 0 4-2.195 4-5 0-2.803-1.758-5-4-5h-2.541c.791-4.127 2.523-7 4.541-7 2.762 0 5 5.373 5 12s-2.238 12-5 12z" id="e"/><path class="path1" d="M20.682 3.732c-.473-.472-1.1-.732-1.768-.732s-1.295.26-1.77.733l-1.41 1.412c-.473.472-.734 1.1-.734 1.769 0 .471.129.922.371 1.313l-13.577 5.439c-.908.399-1.559 1.218-1.742 2.189-.185.977.125 1.979.834 2.687l12.72 12.58c.548.548 1.276.859 2.045.877l.078.001c.202 0 .407-.021.61-.062.994-.206 1.808-.893 2.177-1.828l5.342-13.376c.402.265.875.407 1.367.407.67 0 1.297-.261 1.768-.733l1.407-1.408c.477-.474.738-1.103.738-1.773s-.262-1.3-.732-1.768l-7.724-7.727zm-4.023 25.635c-.124.313-.397.544-.727.612l-.229.021c-.254-.006-.499-.108-.682-.292l-12.728-12.588c-.234-.233-.337-.567-.275-.893.061-.324.279-.598.582-.73l6.217-2.49c4.189 1.393 8.379.051 12.57 4.522l-4.728 11.838zm10.333-15.787l-1.414 1.413c-.195.196-.512.196-.707 0l-1.768-1.767-1.432 3.589.119-.303c-3.01-3.005-6.069-3.384-8.829-3.723-.887-.109-1.747-.223-2.592-.405l8.491-3.401-1.715-1.715c-.195-.195-.195-.512 0-.707l1.414-1.415c.195-.195.512-.195.707 0l7.725 7.727c.198.195.198.512.001.707zm-10.492 7.42c1.378 0 2.5-1.121 2.5-2.5s-1.121-2.5-2.5-2.5-2.5 1.121-2.5 2.5 1.122 2.5 2.5 2.5zm0-4c.828 0 1.5.672 1.5 1.5s-.672 1.5-1.5 1.5c-.829 0-1.5-.672-1.5-1.5s.671-1.5 1.5-1.5zm13-17c-1.379 0-2.5 1.121-2.5 2.5s1.121 2.5 2.5 2.5 2.5-1.121 2.5-2.5-1.121-2.5-2.5-2.5zm0 4c-.828 0-1.5-.672-1.5-1.5s.672-1.5 1.5-1.5 1.5.672 1.5 1.5-.672 1.5-1.5 1.5zm-21.5 13c0 1.103.897 2 2 2s2-.897 2-2-.897-2-2-2-2 .897-2 2zm2-1c.552 0 1 .447 1 1s-.448 1-1 1-1-.447-1-1 .448-1 1-1zm2 7c0-.552.448-1 1-1s1 .448 1 1-.448 1-1 1-1-.448-1-1zm16-15c0-.552.448-1 1-1s1 .448 1 1-.448 1-1 1-1-.448-1-1z" id="f"/></defs><use xlink:href="#a"/><use xlink:href="#b" transform="translate(48)"/><use xlink:href="#c" transform="translate(96)"/><use xlink:href="#d" transform="translate(144)"/><use xlink:href="#e" transform="translate(192)"/><use xlink:href="#f" transform="translate(240)"/></svg>